<?xml version="1.0" standalone="no"?>
<!DOCTYPE svg PUBLIC "-//W3C//DTD SVG 20010904//EN"
 "http://www.w3.org/TR/2001/REC-SVG-20010904/DTD/svg10.dtd">
<svg version="1.0" xmlns="http://www.w3.org/2000/svg"
 width="310.000000pt" height="310.000000pt" viewBox="0 0 310.000000 310.000000"
 preserveAspectRatio="xMidYMid meet">
<metadata>
Created by potrace 1.15, written by Peter Selinger 2001-2017
</metadata>
<g transform="translate(0.000000,310.000000) scale(0.100000,-0.100000)"
fill="#000000" stroke="none">
<path d="M1260 2686 c-470 -226 -877 -427 -904 -445 -79 -54 -183 -159 -232
-232 -200 -301 -154 -666 118 -925 81 -78 138 -116 253 -170 236 -112 521
-134 778 -59 93 27 1117 512 1156 548 27 25 60 92 61 122 0 44 -22 93 -56 128
-52 51 -107 70 -191 65 -63 -4 -89 -15 -363 -147 -655 -317 -731 -352 -798
-366 -289 -62 -573 98 -622 350 -23 118 26 253 125 343 59 54 -3 23 1000 504
424 203 772 371 774 373 8 8 -215 324 -229 324 -8 -1 -400 -186 -870 -413z"/>
<path d="M1952 2276 c-40 -8 -104 -24 -143 -36 -72 -21 -1069 -494 -1120 -530
-58 -42 -86 -148 -54 -209 22 -43 90 -97 141 -111 90 -25 125 -14 474 155 645
312 697 335 767 350 136 29 282 9 404 -56 70 -38 156 -126 188 -194 30 -63 44
-147 36 -207 -11 -75 -67 -179 -129 -235 -61 -56 -5 -27 -1001 -505 -423 -204
-772 -371 -773 -373 -2 -2 45 -76 105 -164 89 -132 112 -160 128 -156 38 8
1723 822 1771 856 79 53 207 188 252 264 22 39 53 106 68 150 25 71 28 94 28
210 0 115 -3 139 -27 210 -36 109 -88 193 -176 287 -125 134 -281 223 -480
275 -120 31 -345 40 -459 19z"/>
</g>
</svg>
